<svg version="1.1" viewBox="0 0 96 96" xmlns="http://www.w3.org/2000/svg" xmlns:xlink="http://www.w3.org/1999/xlink" id="Icons_Classroom" overflow="hidden"><circle cx="41.07" cy="68.14" r="4.54"/><path d=" M 50 83 L 50 78.46 C 49.9852 77.7526 49.6552 77.0887 49.1 76.65 C 47.7954 75.6444 46.3027 74.91 44.71 74.49 C 43.5078 74.121 42.2575 73.9322 41 73.93 C 39.7438 73.9494 38.4959 74.1377 37.29 74.49 C 35.715 74.9563 34.2305 75.6867 32.9 76.65 C 32.3448 77.0887 32.0148 77.7526 32 78.46 L 32 83 Z"/><circle cx="60.93" cy="68.14" r="4.54"/><path d=" M 70 83 L 70 78.46 C 69.9852 77.7526 69.6552 77.0887 69.1 76.65 C 67.7954 75.6444 66.3027 74.91 64.71 74.49 C 63.5078 74.121 62.2575 73.9322 61 73.93 C 59.7438 73.9494 58.4959 74.1377 57.29 74.49 C 55.715 74.9563 54.2305 75.6867 52.9 76.65 C 52.3448 77.0887 52.0148 77.7526 52 78.46 L 52 83 Z"/><circle cx="80.93" cy="68.14" r="4.54"/><path d=" M 90 83 L 90 78.46 C 89.9852 77.7526 89.6552 77.0887 89.1 76.65 C 87.7954 75.6444 86.3027 74.91 84.71 74.49 C 83.5078 74.121 82.2575 73.9322 81 73.93 C 79.7438 73.9494 78.4959 74.1377 77.29 74.49 C 75.715 74.9563 74.2305 75.6867 72.9 76.65 C 72.3448 77.0887 72.0148 77.7526 72 78.46 L 72 83 Z"/><circle cx="21.48" cy="26.16" r="5.94"/><path d=" M 56.51 23.87 C 55.9221 23.2905 54.9779 23.2905 54.39 23.87 L 41.47 36.79 C 40.4375 36.4986 39.3279 36.7807 38.56 37.53 C 38.35 37.74 34.62 43.84 34.62 43.84 L 33.5 39.07 C 33.3517 38.455 33.0449 37.8895 32.61 37.43 C 30.7669 35.9401 28.6457 34.8319 26.37 34.17 C 24.7612 33.8259 23.1245 33.6284 21.48 33.58 C 19.8209 33.6056 18.1727 33.8545 16.58 34.32 C 14.2837 34.922 12.1537 36.0366 10.35 37.58 C 9.91121 38.0367 9.60374 38.6032 9.46 39.22 C 9.46 39.22 5.15 57.32 5.15 57.62 C 5.15 59.2769 6.49315 60.62 8.15 60.62 C 9.4778 60.5859 10.6251 59.6827 10.97 58.4 L 14.09 45.49 L 14.09 87 L 20 87 L 20 60.29 L 23 60.29 L 23 87 L 28.9 87 L 28.9 45.3 L 30 50 C 30.0763 50.3249 30.2922 50.5994 30.59 50.75 C 31.7399 51.6326 33.1408 52.1264 34.59 52.16 C 35.5336 52.2921 36.4686 51.8674 36.99 51.07 L 43.09 41.07 C 43.4799 40.4552 43.6262 39.717 43.5 39 L 56.5 26 C 57.0888 25.4137 57.0933 24.4618 56.51 23.87 Z"/><path d=" M 77 10 L 28 10 C 25.7909 10 24 11.7909 24 14 L 24 17.6 C 25.529 18.0162 26.9132 18.8468 28 20 L 28 14 L 77 14 L 77 47 L 42.87 47 L 40.43 51 L 77 51 C 79.2091 51 81 49.2091 81 47 L 81 14 C 81 11.7909 79.2091 10 77 10 Z"/></svg>